<svg xmlns="http://www.w3.org/2000/svg" viewBox="0 0 5.18 5.18"><defs><style>.cls-1{fill:#fff;}</style></defs><g id="Layer_2" data-name="Layer 2"><g id="Layer_1-2" data-name="Layer 1"><path class="cls-1" d="M2.59,0A2.59,2.59,0,1,0,5.18,2.59,2.59,2.59,0,0,0,2.59,0ZM4.81,2.41h-1A3.79,3.79,0,0,0,3.34.49,2.23,2.23,0,0,1,4.81,2.41ZM2.59,4.82c-.41,0-.85-.84-.89-2.05H3.48C3.44,4,3,4.82,2.59,4.82ZM1.7,2.41c0-1.22.48-2.05.89-2.05s.85.83.89,2.05ZM1.84.49a3.7,3.7,0,0,0-.5,1.92h-1A2.25,2.25,0,0,1,1.84.49ZM.36,2.77h1a3.72,3.72,0,0,0,.5,1.92A2.25,2.25,0,0,1,.36,2.77Zm3,1.92a3.82,3.82,0,0,0,.5-1.92h1A2.23,2.23,0,0,1,3.34,4.69Z"/></g></g></svg>