<svg xmlns="http://www.w3.org/2000/svg" viewBox="0 0 5.22 5.22"><defs><style>.cls-1{fill:#fff;}</style></defs><g id="Layer_2" data-name="Layer 2"><g id="Layer_1-2" data-name="Layer 1"><path class="cls-1" d="M4,.93a.3.3,0,0,0-.3.31.29.29,0,0,0,.3.3.3.3,0,0,0,.31-.3A.31.31,0,0,0,4,.93Z"/><path class="cls-1" d="M2.63,1.33a1.29,1.29,0,0,0,0,2.57,1.29,1.29,0,1,0,0-2.57Zm0,2.1a.82.82,0,0,1,0-1.64.82.82,0,1,1,0,1.64Z"/><path class="cls-1" d="M3.65,5.22H1.57A1.57,1.57,0,0,1,0,3.65V1.57A1.57,1.57,0,0,1,1.57,0H3.65A1.57,1.57,0,0,1,5.22,1.57V3.65A1.57,1.57,0,0,1,3.65,5.22ZM1.57.49A1.08,1.08,0,0,0,.49,1.57V3.65A1.08,1.08,0,0,0,1.57,4.73H3.65A1.08,1.08,0,0,0,4.73,3.65V1.57A1.08,1.08,0,0,0,3.65.49Z"/></g></g></svg>