<svg xmlns="http://www.w3.org/2000/svg" viewBox="0 0 5.21 5.22"><defs><style>.cls-1,.cls-2{fill:#fff;}.cls-2{fill-rule:evenodd;}</style></defs><g id="Layer_2" data-name="Layer 2"><g id="Layer_1-2" data-name="Layer 1"><path class="cls-1" d="M0,5.22.37,3.83A2.64,2.64,0,0,1,.05,2.58,2.58,2.58,0,1,1,2.63,5.16,2.64,2.64,0,0,1,1.4,4.85Zm1.47-.9.09.06a2.15,2.15,0,0,0,1.07.29A2.09,2.09,0,1,0,.54,2.58a2,2,0,0,0,.3,1.08l.06.09-.21.78Z"/><path class="cls-2" d="M3.59,2.94a.42.42,0,0,0-.37-.09c-.1,0-.16.19-.22.27a.09.09,0,0,1-.12,0,1.72,1.72,0,0,1-.83-.72c0-.05,0-.09,0-.14a.51.51,0,0,0,.15-.24.53.53,0,0,0-.07-.3c-.05-.1-.1-.26-.21-.32a.28.28,0,0,0-.32.05A.63.63,0,0,0,1.38,2a1,1,0,0,0,0,.17,1.42,1.42,0,0,0,.16.36c.05.08.1.17.16.25a2.74,2.74,0,0,0,.71.65,2.35,2.35,0,0,0,.45.22,1.1,1.1,0,0,0,.51.08.63.63,0,0,0,.47-.35.37.37,0,0,0,0-.18C3.85,3.07,3.69,3,3.59,2.94Z"/></g></g></svg>